<svg width="1452" height="709" viewBox="0 0 1452 709" fill="none" xmlns="http://www.w3.org/2000/svg">
<g clip-path="url(#clip0_1899_3650)">
<rect width="1452" height="709" fill="white"/>
<g filter="url(#filter0_f_1899_3650)">
<path d="M152.182 293.319C-12.8918 249.97 -135.683 425.412 -138 434H1479.72C1483.77 322.764 1480.53 112.806 1435.12 162.862C1378.36 225.432 1176.79 115.832 1073.12 100.292C969.439 84.7515 858.811 213.164 664.778 284.322C470.744 355.48 317.255 336.668 152.182 293.319Z" fill="#ADC0FA"/>
</g>
<line y1="637.5" x2="1451" y2="637.5" stroke="white" stroke-opacity="0.33"/>
<line x1="915.5" y1="10" x2="915.5" y2="720" stroke="white" stroke-opacity="0.33"/>
<line x1="537.5" y1="10" x2="537.5" y2="720" stroke="white" stroke-opacity="0.33"/>
<line x1="99.5" y1="-2.18557e-08" x2="99.5" y2="710" stroke="white" stroke-opacity="0.33"/>
<line x1="1392.5" y1="-2.18557e-08" x2="1392.5" y2="710" stroke="white" stroke-opacity="0.33"/>
<line x1="18" y1="594.5" x2="1469" y2="594.5" stroke="white" stroke-opacity="0.33"/>
<line y1="119.5" x2="1451" y2="119.5" stroke="white" stroke-opacity="0.33"/>
<line x1="-7" y1="69.5" x2="1444" y2="69.5" stroke="white" stroke-opacity="0.33"/>
<foreignObject x="528.182" y="111.182" width="395.636" height="492.636"><div xmlns="http://www.w3.org/1999/xhtml" style="backdrop-filter:blur(4.41px);clip-path:url(#bgblur_1_1899_3650_clip_path);height:100%;width:100%"></div></foreignObject><g data-figma-bg-blur-radius="8.81795">
<rect x="537" y="120" width="378" height="475" fill="white"/>
<rect x="537.379" y="120.379" width="377.242" height="474.242" stroke="url(#paint0_linear_1899_3650)" stroke-opacity="0.71" stroke-width="0.758454"/>
</g>
<path d="M552.189 525.508V515.478H555.802C556.198 515.478 556.561 515.501 556.889 515.546C557.218 515.586 557.536 515.665 557.842 515.782C558.152 515.895 558.414 516.041 558.625 516.221C558.837 516.401 559.006 516.64 559.132 516.937C559.262 517.23 559.328 517.57 559.328 517.957C559.328 518.434 559.229 518.873 559.03 519.274C558.832 519.67 558.562 519.967 558.22 520.165C559.233 520.589 559.74 521.383 559.74 522.55C559.74 523.067 559.647 523.52 559.463 523.907C559.278 524.294 559.019 524.603 558.686 524.832C558.357 525.062 557.981 525.233 557.558 525.346C557.135 525.454 556.664 525.508 556.147 525.508H552.189ZM553.6 524.319H556.16C556.867 524.319 557.398 524.171 557.754 523.873C558.11 523.572 558.288 523.135 558.288 522.563C558.288 521.978 558.107 521.552 557.747 521.287C557.391 521.021 556.835 520.888 556.079 520.888H553.6V524.319ZM553.6 519.767H556.018C557.274 519.767 557.903 519.227 557.903 518.146C557.903 517.651 557.734 517.282 557.396 517.038C557.063 516.791 556.604 516.667 556.018 516.667H553.6V519.767ZM560.78 521.8C560.78 520.638 561.113 519.706 561.779 519.004C562.446 518.297 563.301 517.943 564.346 517.943C565.093 517.943 565.739 518.137 566.284 518.524C566.829 518.911 567.227 519.425 567.48 520.064C567.687 520.586 567.79 521.156 567.79 521.773C567.79 521.917 567.786 522.061 567.777 522.205H562.144C562.144 522.926 562.356 523.502 562.779 523.934C563.207 524.366 563.733 524.583 564.359 524.583C564.909 524.583 565.339 524.479 565.649 524.272C565.964 524.06 566.208 523.754 566.379 523.353H567.682C567.498 524.038 567.122 524.598 566.554 525.035C565.987 525.472 565.264 525.69 564.386 525.69C563.805 525.69 563.283 525.591 562.819 525.393C562.36 525.195 561.982 524.92 561.685 524.569C561.392 524.218 561.167 523.808 561.009 523.34C560.856 522.867 560.78 522.354 560.78 521.8ZM562.158 521.125H566.446C566.433 520.553 566.239 520.06 565.865 519.645C565.492 519.227 564.985 519.017 564.346 519.017C563.702 519.017 563.182 519.204 562.786 519.578C562.394 519.947 562.185 520.463 562.158 521.125ZM568.675 523.103H570.006C570.213 524.117 570.863 524.623 571.957 524.623C572.475 524.623 572.901 524.524 573.234 524.326C573.572 524.123 573.741 523.853 573.741 523.515C573.741 523.169 573.601 522.901 573.322 522.712C573.043 522.523 572.66 522.381 572.174 522.286L571.073 522.063C570.771 522 570.505 521.926 570.276 521.84C570.046 521.75 569.819 521.629 569.594 521.476C569.373 521.323 569.202 521.122 569.08 520.875C568.959 520.622 568.898 520.332 568.898 520.003C568.898 519.364 569.184 518.86 569.756 518.49C570.328 518.117 571.052 517.93 571.93 517.93C572.754 517.93 573.428 518.137 573.95 518.551C574.472 518.961 574.794 519.524 574.916 520.24H573.599C573.414 519.416 572.811 519.004 571.789 519.004C571.509 519.004 571.253 519.035 571.019 519.098C570.785 519.157 570.584 519.26 570.418 519.409C570.255 519.558 570.174 519.738 570.174 519.949C570.174 520.233 570.269 520.449 570.458 520.598C570.652 520.746 570.953 520.866 571.363 520.956L572.41 521.165C572.797 521.242 573.133 521.332 573.416 521.435C573.705 521.534 573.975 521.667 574.227 521.834C574.483 522 574.677 522.214 574.808 522.475C574.943 522.732 575.01 523.034 575.01 523.38C575.01 524.096 574.722 524.661 574.146 525.076C573.569 525.485 572.831 525.69 571.93 525.69C571.449 525.69 571.005 525.618 570.6 525.474C570.195 525.325 569.859 525.13 569.594 524.886C569.332 524.639 569.123 524.364 568.965 524.062C568.808 523.756 568.711 523.437 568.675 523.103ZM575.74 519.078V518.065H576.915V516.201H578.171V518.065H579.583V519.078H578.171V523.488C578.171 523.894 578.214 524.157 578.299 524.279C578.385 524.396 578.601 524.454 578.948 524.454H579.583V525.508H578.671C578.297 525.508 578.002 525.485 577.786 525.44C577.575 525.391 577.399 525.296 577.259 525.157C577.124 525.013 577.032 524.826 576.982 524.596C576.937 524.362 576.915 524.044 576.915 523.644V519.078H575.74ZM583.905 523.569C583.905 523.277 583.957 523.013 584.061 522.779C584.164 522.545 584.322 522.342 584.533 522.171C584.749 521.996 584.995 521.843 585.269 521.712C585.544 521.582 585.88 521.467 586.276 521.368C586.677 521.269 587.082 521.188 587.492 521.125C587.906 521.057 588.388 520.992 588.937 520.929V520.719C588.937 520.066 588.782 519.607 588.471 519.341C588.165 519.071 587.744 518.936 587.208 518.936C586.645 518.936 586.211 519.067 585.904 519.328C585.603 519.585 585.438 519.947 585.411 520.415H584.115C584.155 519.898 584.326 519.447 584.628 519.065C584.93 518.677 585.306 518.389 585.756 518.2C586.206 518.011 586.695 517.916 587.221 517.916C588.257 517.916 589.013 518.16 589.491 518.646C589.968 519.128 590.204 519.898 590.2 520.956L590.186 522.698C590.186 522.802 590.186 522.901 590.186 522.995C590.186 524.013 590.249 524.85 590.375 525.508H589.106C589.056 525.157 589.025 524.792 589.011 524.414C588.507 525.265 587.658 525.69 586.465 525.69C585.74 525.69 585.132 525.501 584.641 525.123C584.151 524.74 583.905 524.222 583.905 523.569ZM585.303 523.515C585.303 523.871 585.432 524.157 585.688 524.373C585.945 524.585 586.296 524.691 586.742 524.691C587.057 524.691 587.343 524.65 587.6 524.569C587.861 524.488 588.102 524.357 588.322 524.177C588.547 523.997 588.723 523.738 588.849 523.401C588.975 523.058 589.038 522.649 589.038 522.171V521.928C588.624 521.973 588.266 522.016 587.964 522.057C587.663 522.097 587.361 522.149 587.059 522.212C586.758 522.27 586.508 522.338 586.31 522.415C586.111 522.491 585.931 522.581 585.769 522.685C585.607 522.788 585.488 522.91 585.411 523.049C585.339 523.189 585.303 523.344 585.303 523.515ZM591.247 519.078V518.065H592.422V516.201H593.678V518.065H595.09V519.078H593.678V523.488C593.678 523.894 593.721 524.157 593.806 524.279C593.892 524.396 594.108 524.454 594.455 524.454H595.09V525.508H594.178C593.804 525.508 593.509 525.485 593.293 525.44C593.082 525.391 592.906 525.296 592.766 525.157C592.631 525.013 592.539 524.826 592.489 524.596C592.444 524.362 592.422 524.044 592.422 523.644V519.078H591.247ZM599.291 522.394H600.668C600.799 523.083 601.101 523.605 601.574 523.961C602.046 524.317 602.668 524.495 603.438 524.495C604.163 524.495 604.732 524.339 605.146 524.029C605.565 523.718 605.774 523.313 605.774 522.813C605.774 522.322 605.59 521.942 605.221 521.672C604.851 521.401 604.318 521.19 603.62 521.037L602.37 520.78C602.082 520.717 601.81 520.638 601.553 520.544C601.301 520.445 601.053 520.319 600.81 520.165C600.572 520.012 600.365 519.839 600.189 519.645C600.018 519.447 599.881 519.211 599.777 518.936C599.673 518.662 599.622 518.362 599.622 518.038C599.622 517.583 599.732 517.176 599.953 516.815C600.178 516.451 600.47 516.163 600.831 515.951C601.191 515.739 601.576 515.58 601.986 515.471C602.4 515.359 602.818 515.303 603.242 515.303C603.706 515.303 604.14 515.357 604.545 515.465C604.95 515.568 605.324 515.728 605.666 515.944C606.013 516.156 606.306 516.442 606.544 516.802C606.783 517.158 606.95 517.57 607.044 518.038H605.68C605.572 517.669 605.378 517.365 605.099 517.126C604.824 516.888 604.527 516.723 604.208 516.633C603.892 516.539 603.552 516.491 603.188 516.491C602.972 516.491 602.749 516.516 602.519 516.566C602.294 516.615 602.067 516.694 601.837 516.802C601.612 516.906 601.425 517.059 601.276 517.261C601.132 517.459 601.06 517.691 601.06 517.957C601.06 518.731 601.603 519.242 602.688 519.49L603.85 519.753C604.102 519.807 604.327 519.862 604.525 519.916C604.723 519.97 604.944 520.042 605.187 520.132C605.43 520.217 605.642 520.312 605.822 520.415C606.006 520.514 606.191 520.64 606.376 520.794C606.56 520.942 606.711 521.104 606.828 521.28C606.945 521.455 607.04 521.665 607.112 521.908C607.188 522.147 607.227 522.406 607.227 522.685C607.227 523.067 607.157 523.423 607.017 523.752C606.882 524.076 606.695 524.357 606.457 524.596C606.218 524.83 605.937 525.031 605.612 525.197C605.293 525.364 604.946 525.488 604.572 525.569C604.199 525.65 603.811 525.69 603.411 525.69C602.244 525.69 601.299 525.395 600.574 524.805C599.854 524.216 599.426 523.412 599.291 522.394ZM607.888 519.078V518.065H609.064V516.201H610.32V518.065H611.731V519.078H610.32V523.488C610.32 523.894 610.363 524.157 610.448 524.279C610.534 524.396 610.75 524.454 611.097 524.454H611.731V525.508H610.82C610.446 525.508 610.151 525.485 609.935 525.44C609.723 525.391 609.548 525.296 609.408 525.157C609.273 525.013 609.181 524.826 609.131 524.596C609.086 524.362 609.064 524.044 609.064 523.644V519.078H607.888ZM612.772 523.569C612.772 523.277 612.823 523.013 612.927 522.779C613.03 522.545 613.188 522.342 613.4 522.171C613.616 521.996 613.861 521.843 614.136 521.712C614.411 521.582 614.746 521.467 615.142 521.368C615.543 521.269 615.948 521.188 616.358 521.125C616.772 521.057 617.254 520.992 617.803 520.929V520.719C617.803 520.066 617.648 519.607 617.337 519.341C617.031 519.071 616.61 518.936 616.074 518.936C615.511 518.936 615.077 519.067 614.771 519.328C614.469 519.585 614.305 519.947 614.278 520.415H612.981C613.021 519.898 613.193 519.447 613.494 519.065C613.796 518.677 614.172 518.389 614.622 518.2C615.072 518.011 615.561 517.916 616.088 517.916C617.123 517.916 617.88 518.16 618.357 518.646C618.834 519.128 619.071 519.898 619.066 520.956L619.053 522.698C619.053 522.802 619.053 522.901 619.053 522.995C619.053 524.013 619.116 524.85 619.242 525.508H617.972C617.923 525.157 617.891 524.792 617.878 524.414C617.373 525.265 616.524 525.69 615.331 525.69C614.606 525.69 613.999 525.501 613.508 525.123C613.017 524.74 612.772 524.222 612.772 523.569ZM614.17 523.515C614.17 523.871 614.298 524.157 614.555 524.373C614.811 524.585 615.162 524.691 615.608 524.691C615.923 524.691 616.209 524.65 616.466 524.569C616.727 524.488 616.968 524.357 617.189 524.177C617.414 523.997 617.589 523.738 617.715 523.401C617.842 523.058 617.905 522.649 617.905 522.171V521.928C617.49 521.973 617.132 522.016 616.831 522.057C616.529 522.097 616.227 522.149 615.926 522.212C615.624 522.27 615.374 522.338 615.176 522.415C614.978 522.491 614.798 522.581 614.636 522.685C614.474 522.788 614.354 522.91 614.278 523.049C614.206 523.189 614.17 523.344 614.17 523.515ZM620.208 519.078V518.065H621.248V517.525C621.248 517.115 621.273 516.788 621.322 516.545C621.372 516.302 621.471 516.097 621.619 515.931C621.768 515.76 621.97 515.643 622.227 515.58C622.484 515.512 622.826 515.478 623.254 515.478H623.902V516.532H623.281C622.952 516.532 622.74 516.588 622.646 516.701C622.551 516.813 622.504 517.065 622.504 517.457V518.065H623.902V519.078H622.504V525.508H621.248V519.078H620.208ZM624.544 519.078V518.065H625.584V517.525C625.584 517.115 625.609 516.788 625.658 516.545C625.708 516.302 625.807 516.097 625.955 515.931C626.104 515.76 626.306 515.643 626.563 515.58C626.82 515.512 627.162 515.478 627.59 515.478H628.238V516.532H627.617C627.288 516.532 627.076 516.588 626.982 516.701C626.887 516.813 626.84 517.065 626.84 517.457V518.065H628.238V519.078H626.84V525.508H625.584V519.078H624.544ZM629.596 525.508V518.065H630.859V525.508H629.596ZM629.596 516.998V515.478H630.859V516.998H629.596ZM632.851 525.508V518.065H634.114V519.186C634.614 518.358 635.415 517.943 636.518 517.943C638.153 517.943 638.97 518.898 638.97 520.807V525.508H637.707V521.179C637.707 520.922 637.696 520.699 637.673 520.51C637.655 520.321 637.613 520.129 637.545 519.936C637.482 519.738 637.392 519.578 637.275 519.456C637.158 519.335 636.998 519.236 636.795 519.159C636.597 519.078 636.359 519.038 636.079 519.038C635.463 519.038 634.981 519.247 634.634 519.666C634.287 520.08 634.114 520.681 634.114 521.469V525.508H632.851ZM640.355 521.665C640.355 520.503 640.638 519.594 641.206 518.936C641.777 518.274 642.516 517.943 643.421 517.943C644.497 517.943 645.287 518.376 645.792 519.24V518.065H647.048V524.515C647.048 525.226 646.989 525.773 646.872 526.156C646.755 526.543 646.58 526.868 646.345 527.129C646.075 527.439 645.717 527.68 645.272 527.851C644.826 528.023 644.326 528.108 643.772 528.108C642.917 528.108 642.221 527.912 641.685 527.52C641.154 527.133 640.83 526.568 640.713 525.825H642.057C642.151 526.199 642.327 526.487 642.583 526.69C642.845 526.897 643.245 527 643.786 527C644.457 527 644.963 526.816 645.305 526.447C645.467 526.276 645.589 526.075 645.67 525.846C645.751 525.616 645.792 525.269 645.792 524.805V524.096C645.292 524.956 644.502 525.386 643.421 525.386C642.516 525.386 641.777 525.058 641.206 524.4C640.638 523.743 640.355 522.831 640.355 521.665ZM641.719 521.665C641.719 522.525 641.888 523.182 642.225 523.637C642.568 524.092 643.072 524.319 643.738 524.319C644.027 524.319 644.294 524.27 644.542 524.171C644.79 524.067 645.013 523.914 645.211 523.711C645.409 523.504 645.564 523.227 645.677 522.881C645.789 522.529 645.846 522.124 645.846 521.665C645.846 520.778 645.645 520.116 645.245 519.679C644.848 519.238 644.346 519.017 643.738 519.017C643.072 519.017 642.568 519.245 642.225 519.699C641.888 520.154 641.719 520.809 641.719 521.665ZM651.769 522.394H653.147C653.277 523.083 653.579 523.605 654.052 523.961C654.524 524.317 655.146 524.495 655.916 524.495C656.641 524.495 657.21 524.339 657.624 524.029C658.043 523.718 658.253 523.313 658.253 522.813C658.253 522.322 658.068 521.942 657.699 521.672C657.33 521.401 656.796 521.19 656.098 521.037L654.849 520.78C654.56 520.717 654.288 520.638 654.031 520.544C653.779 520.445 653.532 520.319 653.288 520.165C653.05 520.012 652.843 519.839 652.667 519.645C652.496 519.447 652.359 519.211 652.255 518.936C652.152 518.662 652.1 518.362 652.1 518.038C652.1 517.583 652.21 517.176 652.431 516.815C652.656 516.451 652.949 516.163 653.309 515.951C653.669 515.739 654.054 515.58 654.464 515.471C654.878 515.359 655.297 515.303 655.72 515.303C656.184 515.303 656.618 515.357 657.023 515.465C657.429 515.568 657.802 515.728 658.145 515.944C658.491 516.156 658.784 516.442 659.023 516.802C659.261 517.158 659.428 517.57 659.522 518.038H658.158C658.05 517.669 657.856 517.365 657.577 517.126C657.303 516.888 657.005 516.723 656.686 516.633C656.37 516.539 656.031 516.491 655.666 516.491C655.45 516.491 655.227 516.516 654.997 516.566C654.772 516.615 654.545 516.694 654.315 516.802C654.09 516.906 653.903 517.059 653.754 517.261C653.61 517.459 653.538 517.691 653.538 517.957C653.538 518.731 654.081 519.242 655.166 519.49L656.328 519.753C656.58 519.807 656.805 519.862 657.003 519.916C657.201 519.97 657.422 520.042 657.665 520.132C657.908 520.217 658.12 520.312 658.3 520.415C658.484 520.514 658.669 520.64 658.854 520.794C659.038 520.942 659.189 521.104 659.306 521.28C659.423 521.455 659.518 521.665 659.59 521.908C659.666 522.147 659.705 522.406 659.705 522.685C659.705 523.067 659.635 523.423 659.495 523.752C659.36 524.076 659.173 524.357 658.935 524.596C658.696 524.83 658.415 525.031 658.091 525.197C657.771 525.364 657.424 525.488 657.05 525.569C656.677 525.65 656.289 525.69 655.889 525.69C654.723 525.69 653.777 525.395 653.052 524.805C652.332 524.216 651.904 523.412 651.769 522.394ZM660.671 521.8C660.671 520.638 661.004 519.706 661.67 519.004C662.336 518.297 663.192 517.943 664.237 517.943C664.984 517.943 665.63 518.137 666.175 518.524C666.72 518.911 667.118 519.425 667.37 520.064C667.578 520.586 667.681 521.156 667.681 521.773C667.681 521.917 667.677 522.061 667.668 522.205H662.035C662.035 522.926 662.246 523.502 662.67 523.934C663.097 524.366 663.624 524.583 664.25 524.583C664.799 524.583 665.229 524.479 665.54 524.272C665.855 524.06 666.098 523.754 666.27 523.353H667.573C667.388 524.038 667.012 524.598 666.445 525.035C665.878 525.472 665.155 525.69 664.277 525.69C663.696 525.69 663.174 525.591 662.71 525.393C662.251 525.195 661.873 524.92 661.576 524.569C661.283 524.218 661.058 523.808 660.9 523.34C660.747 522.867 660.671 522.354 660.671 521.8ZM662.048 521.125H666.337C666.324 520.553 666.13 520.06 665.756 519.645C665.383 519.227 664.876 519.017 664.237 519.017C663.593 519.017 663.073 519.204 662.676 519.578C662.285 519.947 662.075 520.463 662.048 521.125ZM669.147 525.508V518.065H670.383V519.368C670.567 518.95 670.842 518.626 671.207 518.396C671.571 518.162 671.997 518.038 672.483 518.024C672.641 518.024 672.765 518.029 672.855 518.038V519.382C672.503 519.346 672.269 519.328 672.152 519.328C671.558 519.328 671.119 519.508 670.835 519.868C670.552 520.224 670.41 520.803 670.41 521.604V525.508H669.147ZM673.071 518.065H674.469L676.488 523.765L678.508 518.065H679.804L677.002 525.508H675.88L673.071 518.065ZM680.804 525.508V518.065H682.067V525.508H680.804ZM680.804 516.998V515.478H682.067V516.998H680.804ZM683.553 521.8C683.553 521.057 683.69 520.397 683.965 519.821C684.244 519.24 684.654 518.783 685.194 518.45C685.739 518.112 686.376 517.943 687.105 517.943C687.547 517.943 687.954 518.02 688.328 518.173C688.706 518.326 689.019 518.529 689.267 518.781C689.519 519.033 689.721 519.312 689.875 519.618C690.032 519.92 690.133 520.233 690.178 520.557H688.902C688.807 520.102 688.594 519.738 688.26 519.463C687.932 519.188 687.52 519.051 687.024 519.051C686.408 519.051 685.901 519.285 685.505 519.753C685.113 520.217 684.917 520.895 684.917 521.786C684.917 522.691 685.115 523.385 685.512 523.867C685.912 524.344 686.417 524.583 687.024 524.583C687.542 524.583 687.968 524.441 688.301 524.157C688.639 523.869 688.857 523.513 688.956 523.09H690.26C690.129 523.819 689.764 524.436 689.165 524.94C688.567 525.44 687.839 525.69 686.984 525.69C685.917 525.69 685.077 525.332 684.465 524.616C683.857 523.896 683.553 522.957 683.553 521.8ZM691.239 521.8C691.239 520.638 691.572 519.706 692.238 519.004C692.905 518.297 693.76 517.943 694.805 517.943C695.552 517.943 696.198 518.137 696.743 518.524C697.288 518.911 697.687 519.425 697.939 520.064C698.146 520.586 698.249 521.156 698.249 521.773C698.249 521.917 698.245 522.061 698.236 522.205H692.603C692.603 522.926 692.815 523.502 693.238 523.934C693.666 524.366 694.193 524.583 694.818 524.583C695.368 524.583 695.798 524.479 696.108 524.272C696.424 524.06 696.667 523.754 696.838 523.353H698.141C697.957 524.038 697.581 524.598 697.013 525.035C696.446 525.472 695.723 525.69 694.845 525.69C694.265 525.69 693.742 525.591 693.279 525.393C692.819 525.195 692.441 524.92 692.144 524.569C691.851 524.218 691.626 523.808 691.468 523.34C691.315 522.867 691.239 522.354 691.239 521.8ZM692.617 521.125H696.905C696.892 520.553 696.698 520.06 696.325 519.645C695.951 519.227 695.444 519.017 694.805 519.017C694.161 519.017 693.641 519.204 693.245 519.578C692.853 519.947 692.644 520.463 692.617 521.125ZM699.134 523.103H700.465C700.672 524.117 701.322 524.623 702.417 524.623C702.934 524.623 703.36 524.524 703.693 524.326C704.031 524.123 704.2 523.853 704.2 523.515C704.2 523.169 704.06 522.901 703.781 522.712C703.502 522.523 703.119 522.381 702.633 522.286L701.532 522.063C701.23 522 700.965 521.926 700.735 521.84C700.505 521.75 700.278 521.629 700.053 521.476C699.832 521.323 699.661 521.122 699.539 520.875C699.418 520.622 699.357 520.332 699.357 520.003C699.357 519.364 699.643 518.86 700.215 518.49C700.787 518.117 701.512 517.93 702.39 517.93C703.214 517.93 703.887 518.137 704.409 518.551C704.931 518.961 705.253 519.524 705.375 520.24H704.058C703.873 519.416 703.27 519.004 702.248 519.004C701.969 519.004 701.712 519.035 701.478 519.098C701.244 519.157 701.043 519.26 700.877 519.409C700.715 519.558 700.634 519.738 700.634 519.949C700.634 520.233 700.728 520.449 700.917 520.598C701.111 520.746 701.413 520.866 701.822 520.956L702.869 521.165C703.256 521.242 703.592 521.332 703.875 521.435C704.164 521.534 704.434 521.667 704.686 521.834C704.943 522 705.136 522.214 705.267 522.475C705.402 522.732 705.469 523.034 705.469 523.38C705.469 524.096 705.181 524.661 704.605 525.076C704.029 525.485 703.29 525.69 702.39 525.69C701.908 525.69 701.464 525.618 701.059 525.474C700.654 525.325 700.318 525.13 700.053 524.886C699.792 524.639 699.582 524.364 699.425 524.062C699.267 523.756 699.17 523.437 699.134 523.103ZM706.78 525.508V523.914H708.374V525.508H706.78ZM710.17 525.508V523.914H711.764V525.508H710.17Z" fill="#454545"/>
<line x1="903" y1="542.5" x2="551" y2="542.5" stroke="#F3F3F3"/>
<path d="M559 579.744C554.644 579.744 551.1 576.2 551.1 571.844C551.1 567.487 554.644 563.943 559 563.943C563.357 563.943 566.901 567.487 566.901 571.844C566.901 576.2 563.357 579.744 559 579.744ZM559 565.072C555.264 565.072 552.228 568.108 552.228 571.844C552.228 575.579 555.264 578.615 559 578.615C562.736 578.615 565.772 575.579 565.772 571.844C565.772 568.108 562.736 565.072 559 565.072Z" fill="#D8D8D8"/>
<path d="M559 575.794C558.684 575.794 558.436 575.545 558.436 575.229V568.458C558.436 568.142 558.684 567.893 559 567.893C559.316 567.893 559.564 568.142 559.564 568.458V575.229C559.564 575.545 559.316 575.794 559 575.794Z" fill="#D8D8D8"/>
<path d="M562.386 572.408H555.614C555.298 572.408 555.05 572.16 555.05 571.844C555.05 571.528 555.298 571.279 555.614 571.279H562.386C562.702 571.279 562.95 571.528 562.95 571.844C562.95 572.16 562.702 572.408 562.386 572.408Z" fill="#D8D8D8"/>
<path d="M900.225 567.278C900.55 566.379 899.679 565.508 898.78 565.834L887.791 569.808C886.889 570.135 886.78 571.365 887.609 571.846L891.117 573.877L894.25 570.745C894.392 570.608 894.582 570.532 894.779 570.534C894.976 570.535 895.165 570.614 895.304 570.754C895.444 570.893 895.523 571.082 895.525 571.279C895.526 571.477 895.451 571.667 895.314 571.809L892.181 574.941L894.213 578.449C894.693 579.279 895.924 579.169 896.25 578.267L900.225 567.278Z" fill="#BABABA"/>
<rect x="550" y="141" width="353" height="355" fill="#F7F7F7"/>
<rect opacity="0.5" x="550.25" y="141.25" width="352.5" height="41.5" fill="#D4DFFE" stroke="white" stroke-width="0.5"/>
<rect x="560" y="154" width="105" height="15" rx="2" fill="white"/>
<rect x="562" y="195" width="167" height="18" rx="2" fill="white"/>
<path d="M580.5 208.5L577.5 205.5M571.5 203C571.5 203.46 571.591 203.915 571.766 204.339C571.942 204.764 572.2 205.15 572.525 205.475C572.85 205.8 573.236 206.058 573.661 206.234C574.085 206.409 574.54 206.5 575 206.5C575.46 206.5 575.915 206.409 576.339 206.234C576.764 206.058 577.15 205.8 577.475 205.475C577.8 205.15 578.058 204.764 578.234 204.339C578.409 203.915 578.5 203.46 578.5 203C578.5 202.54 578.409 202.085 578.234 201.661C578.058 201.236 577.8 200.85 577.475 200.525C577.15 200.2 576.764 199.942 576.339 199.766C575.915 199.591 575.46 199.5 575 199.5C574.54 199.5 574.085 199.591 573.661 199.766C573.236 199.942 572.85 200.2 572.525 200.525C572.2 200.85 571.942 201.236 571.766 201.661C571.591 202.085 571.5 202.54 571.5 203Z" stroke="#BABABA" stroke-linecap="round" stroke-linejoin="round"/>
<rect x="837" y="154" width="53" height="15" rx="2" fill="white"/>
<rect x="560" y="221" width="330" height="53" rx="2" fill="#F1F4FF"/>
<path d="M598.642 251.358C600.497 243.272 595.444 235.213 587.358 233.358C579.271 231.504 571.212 236.556 569.358 244.643C567.503 252.73 572.556 260.789 580.642 262.643C588.729 264.498 596.788 259.445 598.642 251.358Z" fill="#B9C4E1"/>
<path d="M584.004 254.175C587.231 254.175 589.847 250.551 589.847 246.081C589.847 241.611 587.231 237.987 584.004 237.987C580.776 237.987 578.16 241.611 578.16 246.081C578.16 250.551 580.776 254.175 584.004 254.175Z" fill="white"/>
<path d="M583.911 253.657C579.02 253.657 574.647 254.829 571.738 256.671C574.459 260.513 578.937 263.024 584.004 263.024C589.035 263.024 593.485 260.549 596.211 256.752C593.304 254.864 588.875 253.657 583.911 253.657Z" fill="white"/>
<path d="M584.893 257.544H583.114C581.886 257.544 580.881 256.539 580.881 255.311V250.236C580.881 249.008 581.886 248.003 583.114 248.003H584.893C586.121 248.003 587.126 249.008 587.126 250.236V255.311C587.126 256.539 586.121 257.544 584.893 257.544Z" fill="white"/>
<path d="M579.083 246.541C579.257 247.839 578.969 248.964 578.439 249.054C577.909 249.144 577.337 248.165 577.162 246.868C576.987 245.57 577.275 244.445 577.805 244.355C578.336 244.265 578.908 245.243 579.083 246.541Z" fill="white"/>
<path d="M588.925 246.541C588.75 247.839 589.038 248.964 589.568 249.054C590.098 249.144 590.67 248.165 590.845 246.868C591.02 245.57 590.732 244.445 590.202 244.355C589.672 244.265 589.1 245.243 588.925 246.541Z" fill="white"/>
<path d="M578.364 245.764C578.167 244.468 577.971 243.172 577.774 241.877C577.703 241.406 577.634 240.911 577.806 240.467C577.977 240.023 578.481 239.67 578.927 239.836C578.749 238.935 579.746 238.269 580.615 237.97C582.071 237.469 583.632 237.214 585.159 237.411C586.686 237.609 588.177 238.284 589.207 239.429C589.533 239.792 589.813 240.204 589.969 240.665C590.267 241.555 590.077 242.525 589.885 243.443C589.731 244.172 589.579 244.901 589.426 245.631C589.391 245.797 589.352 245.972 589.238 246.098C589.057 246.3 588.751 246.315 588.48 246.316C585.582 246.322 582.684 246.328 579.787 246.335C579.242 246.336 578.531 246.201 578.459 245.661" fill="white"/>
<rect x="610" y="238" width="191" height="6" rx="1" fill="#D8D8D8"/>
<rect x="610" y="251" width="162" height="6" rx="1" fill="#D8D8D8"/>
<path d="M586.29 204.974H587.187C587.271 205.422 587.468 205.762 587.775 205.994C588.083 206.225 588.487 206.341 588.988 206.341C589.46 206.341 589.831 206.24 590.1 206.038C590.373 205.835 590.509 205.572 590.509 205.247C590.509 204.927 590.389 204.68 590.148 204.504C589.908 204.328 589.561 204.19 589.107 204.091L588.294 203.924C588.106 203.883 587.929 203.832 587.762 203.77C587.598 203.706 587.437 203.624 587.279 203.524C587.124 203.424 586.989 203.312 586.875 203.186C586.763 203.057 586.674 202.903 586.606 202.724C586.539 202.545 586.505 202.351 586.505 202.14C586.505 201.844 586.577 201.579 586.721 201.344C586.867 201.107 587.058 200.919 587.292 200.782C587.526 200.644 587.777 200.54 588.043 200.47C588.313 200.396 588.585 200.36 588.861 200.36C589.163 200.36 589.445 200.395 589.709 200.465C589.973 200.533 590.216 200.637 590.438 200.777C590.664 200.915 590.854 201.101 591.01 201.335C591.165 201.567 591.273 201.835 591.335 202.14H590.447C590.377 201.899 590.251 201.702 590.069 201.546C589.891 201.391 589.697 201.284 589.489 201.226C589.284 201.164 589.063 201.133 588.826 201.133C588.685 201.133 588.54 201.149 588.391 201.182C588.244 201.214 588.096 201.265 587.947 201.335C587.8 201.403 587.679 201.502 587.582 201.634C587.488 201.763 587.441 201.914 587.441 202.087C587.441 202.591 587.794 202.923 588.5 203.084L589.256 203.256C589.42 203.291 589.567 203.326 589.696 203.361C589.825 203.396 589.968 203.443 590.126 203.502C590.285 203.558 590.422 203.619 590.54 203.687C590.66 203.751 590.78 203.833 590.9 203.933C591.02 204.029 591.118 204.135 591.194 204.249C591.271 204.363 591.332 204.5 591.379 204.658C591.429 204.813 591.454 204.981 591.454 205.163C591.454 205.412 591.408 205.644 591.317 205.857C591.229 206.068 591.108 206.251 590.953 206.407C590.797 206.559 590.614 206.689 590.403 206.798C590.195 206.906 589.97 206.987 589.727 207.04C589.483 207.092 589.231 207.119 588.971 207.119C588.212 207.119 587.597 206.927 587.125 206.543C586.656 206.159 586.378 205.636 586.29 204.974ZM592.082 204.587C592.082 203.832 592.299 203.225 592.732 202.768C593.166 202.308 593.723 202.078 594.402 202.078C594.889 202.078 595.309 202.204 595.664 202.456C596.018 202.708 596.277 203.042 596.441 203.458C596.576 203.798 596.644 204.168 596.644 204.57C596.644 204.664 596.641 204.757 596.635 204.851H592.97C592.97 205.32 593.107 205.695 593.383 205.976C593.661 206.257 594.004 206.398 594.411 206.398C594.769 206.398 595.048 206.331 595.25 206.196C595.456 206.058 595.614 205.859 595.725 205.598H596.573C596.453 206.043 596.208 206.408 595.839 206.692C595.47 206.977 595 207.119 594.429 207.119C594.051 207.119 593.711 207.054 593.409 206.925C593.11 206.796 592.864 206.618 592.671 206.389C592.48 206.161 592.334 205.894 592.231 205.589C592.132 205.282 592.082 204.948 592.082 204.587ZM592.979 204.148H595.769C595.76 203.776 595.634 203.455 595.391 203.186C595.148 202.913 594.818 202.777 594.402 202.777C593.983 202.777 593.645 202.898 593.387 203.142C593.132 203.382 592.996 203.717 592.979 204.148ZM597.276 205.739C597.276 205.548 597.31 205.377 597.377 205.225C597.445 205.072 597.547 204.94 597.685 204.829C597.826 204.715 597.985 204.615 598.164 204.53C598.343 204.445 598.561 204.371 598.819 204.306C599.08 204.242 599.343 204.189 599.61 204.148C599.879 204.104 600.193 204.062 600.55 204.021V203.884C600.55 203.459 600.449 203.161 600.247 202.988C600.048 202.812 599.774 202.724 599.425 202.724C599.059 202.724 598.776 202.809 598.577 202.979C598.381 203.146 598.274 203.382 598.256 203.687H597.413C597.439 203.35 597.55 203.057 597.747 202.808C597.943 202.556 598.188 202.368 598.48 202.245C598.773 202.122 599.091 202.061 599.434 202.061C600.108 202.061 600.6 202.219 600.911 202.535C601.221 202.849 601.375 203.35 601.372 204.038L601.363 205.172C601.363 205.239 601.363 205.304 601.363 205.365C601.363 206.027 601.404 206.572 601.486 207H600.66C600.628 206.771 600.607 206.534 600.599 206.288C600.271 206.842 599.718 207.119 598.942 207.119C598.47 207.119 598.075 206.996 597.755 206.75C597.436 206.5 597.276 206.164 597.276 205.739ZM598.186 205.704C598.186 205.935 598.27 206.121 598.437 206.262C598.604 206.399 598.832 206.468 599.122 206.468C599.327 206.468 599.513 206.442 599.68 206.389C599.85 206.336 600.007 206.251 600.15 206.134C600.297 206.017 600.411 205.849 600.493 205.629C600.575 205.406 600.616 205.14 600.616 204.829V204.671C600.347 204.7 600.114 204.728 599.917 204.754C599.721 204.781 599.525 204.814 599.329 204.855C599.132 204.894 598.97 204.938 598.841 204.987C598.712 205.037 598.595 205.096 598.489 205.163C598.384 205.23 598.306 205.31 598.256 205.4C598.209 205.491 598.186 205.592 598.186 205.704ZM602.581 207V202.157H603.385V203.005C603.505 202.733 603.684 202.522 603.921 202.373C604.158 202.22 604.435 202.14 604.751 202.131C604.854 202.131 604.935 202.134 604.993 202.14V203.014C604.765 202.991 604.612 202.979 604.536 202.979C604.149 202.979 603.864 203.096 603.679 203.331C603.495 203.562 603.402 203.938 603.402 204.46V207H602.581ZM605.362 204.587C605.362 204.104 605.452 203.675 605.63 203.3C605.812 202.922 606.079 202.625 606.43 202.408C606.785 202.188 607.199 202.078 607.674 202.078C607.961 202.078 608.226 202.128 608.469 202.228C608.715 202.327 608.919 202.459 609.08 202.623C609.244 202.787 609.376 202.969 609.476 203.168C609.578 203.364 609.644 203.568 609.673 203.779H608.843C608.781 203.483 608.642 203.246 608.425 203.067C608.211 202.888 607.943 202.799 607.621 202.799C607.22 202.799 606.89 202.951 606.632 203.256C606.377 203.558 606.25 203.999 606.25 204.579C606.25 205.167 606.379 205.619 606.637 205.932C606.897 206.243 607.226 206.398 607.621 206.398C607.958 206.398 608.235 206.306 608.452 206.121C608.671 205.934 608.813 205.702 608.878 205.427H609.726C609.641 205.901 609.404 206.303 609.014 206.631C608.625 206.956 608.151 207.119 607.595 207.119C606.9 207.119 606.354 206.886 605.956 206.42C605.56 205.951 605.362 205.34 605.362 204.587ZM610.649 207V200.474H611.471V202.887C611.796 202.348 612.317 202.078 613.035 202.078C614.099 202.078 614.63 202.699 614.63 203.941V207H613.809V204.183C613.809 204.016 613.801 203.871 613.787 203.748C613.775 203.625 613.747 203.5 613.703 203.375C613.662 203.246 613.604 203.142 613.527 203.062C613.451 202.983 613.347 202.919 613.215 202.869C613.086 202.816 612.931 202.79 612.75 202.79C612.348 202.79 612.035 202.926 611.809 203.199C611.583 203.468 611.471 203.859 611.471 204.372V207H610.649Z" fill="#8A8A8A"/>
</g>
<defs>
<filter id="filter0_f_1899_3650" x="-636.6" y="-399.6" width="2616.2" height="1332.2" filterUnits="userSpaceOnUse" color-interpolation-filters="sRGB">
<feFlood flood-opacity="0" result="BackgroundImageFix"/>
<feBlend mode="normal" in="SourceGraphic" in2="BackgroundImageFix" result="shape"/>
<feGaussianBlur stdDeviation="249.3" result="effect1_foregroundBlur_1899_3650"/>
</filter>
<clipPath id="bgblur_1_1899_3650_clip_path" transform="translate(-528.182 -111.182)"><rect x="537" y="120" width="378" height="475"/>
</clipPath><linearGradient id="paint0_linear_1899_3650" x1="656.455" y1="328.295" x2="1060.65" y2="438.512" gradientUnits="userSpaceOnUse">
<stop stop-color="white"/>
<stop offset="1" stop-color="white" stop-opacity="0"/>
</linearGradient>
<clipPath id="clip0_1899_3650">
<rect width="1452" height="709" fill="white"/>
</clipPath>
</defs>
</svg>
