<svg width="1452" height="709" viewBox="0 0 1452 709" fill="none" xmlns="http://www.w3.org/2000/svg">
<g clip-path="url(#clip0_1914_14233)">
<rect width="1452" height="709" fill="white"/>
<g filter="url(#filter0_f_1914_14233)">
<path d="M152.182 293.319C-12.8918 249.97 -135.683 425.412 -138 434H1479.72C1483.77 322.764 1480.53 112.806 1435.12 162.862C1378.36 225.432 1176.79 115.832 1073.12 100.292C969.439 84.7515 858.811 213.164 664.778 284.322C470.744 355.48 317.255 336.668 152.182 293.319Z" fill="#ADC0FA"/>
</g>
<line y1="637.5" x2="1451" y2="637.5" stroke="white" stroke-opacity="0.33"/>
<line x1="915.5" y1="10" x2="915.5" y2="720" stroke="white" stroke-opacity="0.33"/>
<line x1="537.5" y1="10" x2="537.5" y2="720" stroke="white" stroke-opacity="0.33"/>
<line x1="99.5" y1="-2.18557e-08" x2="99.5" y2="710" stroke="white" stroke-opacity="0.33"/>
<line x1="1392.5" y1="-2.18557e-08" x2="1392.5" y2="710" stroke="white" stroke-opacity="0.33"/>
<line x1="18" y1="594.5" x2="1469" y2="594.5" stroke="white" stroke-opacity="0.33"/>
<line y1="119.5" x2="1451" y2="119.5" stroke="white" stroke-opacity="0.33"/>
<line x1="-7" y1="69.5" x2="1444" y2="69.5" stroke="white" stroke-opacity="0.33"/>
<foreignObject x="528.182" y="111.182" width="395.636" height="492.636"><div xmlns="http://www.w3.org/1999/xhtml" style="backdrop-filter:blur(4.41px);clip-path:url(#bgblur_1_1914_14233_clip_path);height:100%;width:100%"></div></foreignObject><g data-figma-bg-blur-radius="8.81795">
<rect x="537" y="120" width="378" height="475" fill="white"/>
<rect x="537.379" y="120.379" width="377.242" height="474.242" stroke="url(#paint0_linear_1914_14233)" stroke-opacity="0.71" stroke-width="0.758454"/>
</g>
<path d="M552.189 525.508V515.478H555.802C556.198 515.478 556.561 515.501 556.889 515.546C557.218 515.586 557.536 515.665 557.842 515.782C558.152 515.895 558.414 516.041 558.625 516.221C558.837 516.401 559.006 516.64 559.132 516.937C559.262 517.23 559.328 517.57 559.328 517.957C559.328 518.434 559.229 518.873 559.03 519.274C558.832 519.67 558.562 519.967 558.22 520.165C559.233 520.589 559.74 521.383 559.74 522.55C559.74 523.067 559.647 523.52 559.463 523.907C559.278 524.294 559.019 524.603 558.686 524.832C558.357 525.062 557.981 525.233 557.558 525.346C557.135 525.454 556.664 525.508 556.147 525.508H552.189ZM553.6 524.319H556.16C556.867 524.319 557.398 524.171 557.754 523.873C558.11 523.572 558.288 523.135 558.288 522.563C558.288 521.978 558.107 521.552 557.747 521.287C557.391 521.021 556.835 520.888 556.079 520.888H553.6V524.319ZM553.6 519.767H556.018C557.274 519.767 557.903 519.227 557.903 518.146C557.903 517.651 557.734 517.282 557.396 517.038C557.063 516.791 556.604 516.667 556.018 516.667H553.6V519.767ZM560.78 521.8C560.78 520.638 561.113 519.706 561.779 519.004C562.446 518.297 563.301 517.943 564.346 517.943C565.093 517.943 565.739 518.137 566.284 518.524C566.829 518.911 567.227 519.425 567.48 520.064C567.687 520.586 567.79 521.156 567.79 521.773C567.79 521.917 567.786 522.061 567.777 522.205H562.144C562.144 522.926 562.356 523.502 562.779 523.934C563.207 524.366 563.733 524.583 564.359 524.583C564.909 524.583 565.339 524.479 565.649 524.272C565.964 524.06 566.208 523.754 566.379 523.353H567.682C567.498 524.038 567.122 524.598 566.554 525.035C565.987 525.472 565.264 525.69 564.386 525.69C563.805 525.69 563.283 525.591 562.819 525.393C562.36 525.195 561.982 524.92 561.685 524.569C561.392 524.218 561.167 523.808 561.009 523.34C560.856 522.867 560.78 522.354 560.78 521.8ZM562.158 521.125H566.446C566.433 520.553 566.239 520.06 565.865 519.645C565.492 519.227 564.985 519.017 564.346 519.017C563.702 519.017 563.182 519.204 562.786 519.578C562.394 519.947 562.185 520.463 562.158 521.125ZM568.675 523.103H570.006C570.213 524.117 570.863 524.623 571.957 524.623C572.475 524.623 572.901 524.524 573.234 524.326C573.572 524.123 573.741 523.853 573.741 523.515C573.741 523.169 573.601 522.901 573.322 522.712C573.043 522.523 572.66 522.381 572.174 522.286L571.073 522.063C570.771 522 570.505 521.926 570.276 521.84C570.046 521.75 569.819 521.629 569.594 521.476C569.373 521.323 569.202 521.122 569.08 520.875C568.959 520.622 568.898 520.332 568.898 520.003C568.898 519.364 569.184 518.86 569.756 518.49C570.328 518.117 571.052 517.93 571.93 517.93C572.754 517.93 573.428 518.137 573.95 518.551C574.472 518.961 574.794 519.524 574.916 520.24H573.599C573.414 519.416 572.811 519.004 571.789 519.004C571.509 519.004 571.253 519.035 571.019 519.098C570.785 519.157 570.584 519.26 570.418 519.409C570.255 519.558 570.174 519.738 570.174 519.949C570.174 520.233 570.269 520.449 570.458 520.598C570.652 520.746 570.953 520.866 571.363 520.956L572.41 521.165C572.797 521.242 573.133 521.332 573.416 521.435C573.705 521.534 573.975 521.667 574.227 521.834C574.483 522 574.677 522.214 574.808 522.475C574.943 522.732 575.01 523.034 575.01 523.38C575.01 524.096 574.722 524.661 574.146 525.076C573.569 525.485 572.831 525.69 571.93 525.69C571.449 525.69 571.005 525.618 570.6 525.474C570.195 525.325 569.859 525.13 569.594 524.886C569.332 524.639 569.123 524.364 568.965 524.062C568.808 523.756 568.711 523.437 568.675 523.103ZM575.74 519.078V518.065H576.915V516.201H578.171V518.065H579.583V519.078H578.171V523.488C578.171 523.894 578.214 524.157 578.299 524.279C578.385 524.396 578.601 524.454 578.948 524.454H579.583V525.508H578.671C578.297 525.508 578.002 525.485 577.786 525.44C577.575 525.391 577.399 525.296 577.259 525.157C577.124 525.013 577.032 524.826 576.982 524.596C576.937 524.362 576.915 524.044 576.915 523.644V519.078H575.74ZM583.905 523.569C583.905 523.277 583.957 523.013 584.061 522.779C584.164 522.545 584.322 522.342 584.533 522.171C584.749 521.996 584.995 521.843 585.269 521.712C585.544 521.582 585.88 521.467 586.276 521.368C586.677 521.269 587.082 521.188 587.492 521.125C587.906 521.057 588.388 520.992 588.937 520.929V520.719C588.937 520.066 588.782 519.607 588.471 519.341C588.165 519.071 587.744 518.936 587.208 518.936C586.645 518.936 586.211 519.067 585.904 519.328C585.603 519.585 585.438 519.947 585.411 520.415H584.115C584.155 519.898 584.326 519.447 584.628 519.065C584.93 518.677 585.306 518.389 585.756 518.2C586.206 518.011 586.695 517.916 587.221 517.916C588.257 517.916 589.013 518.16 589.491 518.646C589.968 519.128 590.204 519.898 590.2 520.956L590.186 522.698C590.186 522.802 590.186 522.901 590.186 522.995C590.186 524.013 590.249 524.85 590.375 525.508H589.106C589.056 525.157 589.025 524.792 589.011 524.414C588.507 525.265 587.658 525.69 586.465 525.69C585.74 525.69 585.132 525.501 584.641 525.123C584.151 524.74 583.905 524.222 583.905 523.569ZM585.303 523.515C585.303 523.871 585.432 524.157 585.688 524.373C585.945 524.585 586.296 524.691 586.742 524.691C587.057 524.691 587.343 524.65 587.6 524.569C587.861 524.488 588.102 524.357 588.322 524.177C588.547 523.997 588.723 523.738 588.849 523.401C588.975 523.058 589.038 522.649 589.038 522.171V521.928C588.624 521.973 588.266 522.016 587.964 522.057C587.663 522.097 587.361 522.149 587.059 522.212C586.758 522.27 586.508 522.338 586.31 522.415C586.111 522.491 585.931 522.581 585.769 522.685C585.607 522.788 585.488 522.91 585.411 523.049C585.339 523.189 585.303 523.344 585.303 523.515ZM591.247 519.078V518.065H592.422V516.201H593.678V518.065H595.09V519.078H593.678V523.488C593.678 523.894 593.721 524.157 593.806 524.279C593.892 524.396 594.108 524.454 594.455 524.454H595.09V525.508H594.178C593.804 525.508 593.509 525.485 593.293 525.44C593.082 525.391 592.906 525.296 592.766 525.157C592.631 525.013 592.539 524.826 592.489 524.596C592.444 524.362 592.422 524.044 592.422 523.644V519.078H591.247ZM600.034 525.508V515.478H603.174C603.692 515.478 604.149 515.505 604.545 515.559C604.946 515.609 605.326 515.701 605.687 515.836C606.051 515.971 606.349 516.151 606.578 516.376C606.812 516.597 606.997 516.888 607.132 517.248C607.267 517.603 607.335 518.024 607.335 518.511C607.335 518.997 607.267 519.42 607.132 519.78C606.997 520.141 606.812 520.433 606.578 520.658C606.349 520.879 606.051 521.057 605.687 521.192C605.326 521.323 604.948 521.413 604.552 521.462C604.156 521.512 603.697 521.536 603.174 521.536H601.445V525.508H600.034ZM601.445 520.307H603.282C603.62 520.307 603.901 520.298 604.127 520.28C604.352 520.262 604.586 520.219 604.829 520.152C605.072 520.08 605.263 519.981 605.403 519.855C605.547 519.729 605.664 519.553 605.754 519.328C605.849 519.103 605.896 518.83 605.896 518.511C605.896 518.191 605.849 517.919 605.754 517.694C605.664 517.464 605.547 517.284 605.403 517.153C605.259 517.023 605.068 516.921 604.829 516.849C604.59 516.773 604.354 516.723 604.12 516.701C603.89 516.678 603.611 516.667 603.282 516.667H601.445V520.307ZM608.496 525.508V518.065H609.732V519.368C609.917 518.95 610.192 518.626 610.556 518.396C610.921 518.162 611.346 518.038 611.833 518.024C611.99 518.024 612.114 518.029 612.204 518.038V519.382C611.853 519.346 611.619 519.328 611.502 519.328C610.907 519.328 610.468 519.508 610.185 519.868C609.901 520.224 609.759 520.803 609.759 521.604V525.508H608.496ZM613.096 523.549C612.898 523.04 612.799 522.462 612.799 521.813C612.799 521.165 612.898 520.586 613.096 520.078C613.294 519.569 613.56 519.164 613.893 518.862C614.23 518.56 614.604 518.333 615.014 518.18C615.428 518.022 615.865 517.943 616.324 517.943C616.783 517.943 617.218 518.022 617.628 518.18C618.042 518.333 618.416 518.56 618.749 518.862C619.086 519.164 619.354 519.569 619.553 520.078C619.751 520.586 619.85 521.165 619.85 521.813C619.85 522.462 619.751 523.04 619.553 523.549C619.354 524.058 619.086 524.465 618.749 524.772C618.416 525.073 618.042 525.303 617.628 525.461C617.218 525.614 616.783 525.69 616.324 525.69C615.865 525.69 615.428 525.614 615.014 525.461C614.604 525.303 614.23 525.073 613.893 524.772C613.56 524.465 613.294 524.058 613.096 523.549ZM614.136 521.813C614.136 522.291 614.192 522.712 614.305 523.076C614.422 523.441 614.582 523.732 614.784 523.948C614.991 524.159 615.223 524.319 615.48 524.427C615.737 524.531 616.018 524.583 616.324 524.583C616.959 524.583 617.481 524.348 617.891 523.88C618.305 523.412 618.512 522.723 618.512 521.813C618.512 521.336 618.454 520.917 618.337 520.557C618.224 520.192 618.064 519.904 617.857 519.693C617.655 519.477 617.425 519.317 617.168 519.213C616.912 519.105 616.63 519.051 616.324 519.051C615.676 519.051 615.149 519.274 614.744 519.72C614.338 520.161 614.136 520.859 614.136 521.813ZM621.356 527.926V518.065H622.619V519.24C623.123 518.376 623.934 517.943 625.05 517.943C625.955 517.943 626.705 518.292 627.299 518.99C627.894 519.684 628.191 520.625 628.191 521.813C628.191 522.417 628.11 522.966 627.948 523.461C627.786 523.952 627.563 524.36 627.279 524.684C626.995 525.004 626.662 525.251 626.279 525.427C625.901 525.602 625.491 525.69 625.05 525.69C623.934 525.69 623.123 525.256 622.619 524.387V527.926H621.356ZM622.74 520.557C622.623 520.922 622.565 521.341 622.565 521.813C622.565 522.286 622.623 522.707 622.74 523.076C622.862 523.441 623.024 523.734 623.227 523.954C623.434 524.171 623.663 524.335 623.916 524.447C624.172 524.556 624.445 524.61 624.733 524.61C625.404 524.61 625.919 524.366 626.279 523.88C626.64 523.389 626.82 522.7 626.82 521.813C626.82 520.926 626.64 520.24 626.279 519.753C625.919 519.263 625.404 519.017 624.733 519.017C624.445 519.017 624.172 519.074 623.916 519.186C623.663 519.294 623.434 519.459 623.227 519.679C623.024 519.895 622.862 520.188 622.74 520.557ZM629.589 523.549C629.391 523.04 629.292 522.462 629.292 521.813C629.292 521.165 629.391 520.586 629.589 520.078C629.787 519.569 630.053 519.164 630.386 518.862C630.724 518.56 631.097 518.333 631.507 518.18C631.921 518.022 632.358 517.943 632.817 517.943C633.277 517.943 633.711 518.022 634.121 518.18C634.535 518.333 634.909 518.56 635.242 518.862C635.58 519.164 635.848 519.569 636.046 520.078C636.244 520.586 636.343 521.165 636.343 521.813C636.343 522.462 636.244 523.04 636.046 523.549C635.848 524.058 635.58 524.465 635.242 524.772C634.909 525.073 634.535 525.303 634.121 525.461C633.711 525.614 633.277 525.69 632.817 525.69C632.358 525.69 631.921 525.614 631.507 525.461C631.097 525.303 630.724 525.073 630.386 524.772C630.053 524.465 629.787 524.058 629.589 523.549ZM630.629 521.813C630.629 522.291 630.685 522.712 630.798 523.076C630.915 523.441 631.075 523.732 631.277 523.948C631.484 524.159 631.716 524.319 631.973 524.427C632.23 524.531 632.511 524.583 632.817 524.583C633.452 524.583 633.974 524.348 634.384 523.88C634.798 523.412 635.006 522.723 635.006 521.813C635.006 521.336 634.947 520.917 634.83 520.557C634.717 520.192 634.558 519.904 634.35 519.693C634.148 519.477 633.918 519.317 633.661 519.213C633.405 519.105 633.123 519.051 632.817 519.051C632.169 519.051 631.642 519.274 631.237 519.72C630.832 520.161 630.629 520.859 630.629 521.813ZM637.241 523.103H638.572C638.779 524.117 639.429 524.623 640.523 524.623C641.041 524.623 641.467 524.524 641.8 524.326C642.138 524.123 642.307 523.853 642.307 523.515C642.307 523.169 642.167 522.901 641.888 522.712C641.609 522.523 641.226 522.381 640.74 522.286L639.639 522.063C639.337 522 639.071 521.926 638.842 521.84C638.612 521.75 638.385 521.629 638.16 521.476C637.939 521.323 637.768 521.122 637.646 520.875C637.525 520.622 637.464 520.332 637.464 520.003C637.464 519.364 637.75 518.86 638.322 518.49C638.894 518.117 639.618 517.93 640.496 517.93C641.32 517.93 641.994 518.137 642.516 518.551C643.038 518.961 643.36 519.524 643.482 520.24H642.165C641.98 519.416 641.377 519.004 640.355 519.004C640.075 519.004 639.819 519.035 639.585 519.098C639.351 519.157 639.15 519.26 638.984 519.409C638.821 519.558 638.74 519.738 638.74 519.949C638.74 520.233 638.835 520.449 639.024 520.598C639.218 520.746 639.519 520.866 639.929 520.956L640.976 521.165C641.363 521.242 641.699 521.332 641.982 521.435C642.271 521.534 642.541 521.667 642.793 521.834C643.049 522 643.243 522.214 643.374 522.475C643.509 522.732 643.576 523.034 643.576 523.38C643.576 524.096 643.288 524.661 642.712 525.076C642.135 525.485 641.397 525.69 640.496 525.69C640.015 525.69 639.571 525.618 639.166 525.474C638.761 525.325 638.425 525.13 638.16 524.886C637.898 524.639 637.689 524.364 637.531 524.062C637.374 523.756 637.277 523.437 637.241 523.103ZM644.691 523.569C644.691 523.277 644.742 523.013 644.846 522.779C644.95 522.545 645.107 522.342 645.319 522.171C645.535 521.996 645.78 521.843 646.055 521.712C646.33 521.582 646.665 521.467 647.061 521.368C647.462 521.269 647.867 521.188 648.277 521.125C648.691 521.057 649.173 520.992 649.722 520.929V520.719C649.722 520.066 649.567 519.607 649.256 519.341C648.95 519.071 648.529 518.936 647.993 518.936C647.431 518.936 646.996 519.067 646.69 519.328C646.388 519.585 646.224 519.947 646.197 520.415H644.9C644.941 519.898 645.112 519.447 645.413 519.065C645.715 518.677 646.091 518.389 646.541 518.2C646.992 518.011 647.48 517.916 648.007 517.916C649.042 517.916 649.799 518.16 650.276 518.646C650.753 519.128 650.99 519.898 650.985 520.956L650.972 522.698C650.972 522.802 650.972 522.901 650.972 522.995C650.972 524.013 651.035 524.85 651.161 525.508H649.891C649.842 525.157 649.81 524.792 649.797 524.414C649.292 525.265 648.444 525.69 647.25 525.69C646.525 525.69 645.918 525.501 645.427 525.123C644.936 524.74 644.691 524.222 644.691 523.569ZM646.089 523.515C646.089 523.871 646.217 524.157 646.474 524.373C646.73 524.585 647.082 524.691 647.527 524.691C647.843 524.691 648.128 524.65 648.385 524.569C648.646 524.488 648.887 524.357 649.108 524.177C649.333 523.997 649.508 523.738 649.635 523.401C649.761 523.058 649.824 522.649 649.824 522.171V521.928C649.409 521.973 649.051 522.016 648.75 522.057C648.448 522.097 648.146 522.149 647.845 522.212C647.543 522.27 647.293 522.338 647.095 522.415C646.897 522.491 646.717 522.581 646.555 522.685C646.393 522.788 646.273 522.91 646.197 523.049C646.125 523.189 646.089 523.344 646.089 523.515ZM652.843 525.508V515.478H654.106V525.508H652.843ZM659.576 525.508V515.478H662.318C662.976 515.478 663.572 515.53 664.108 515.634C664.649 515.733 665.151 515.904 665.614 516.147C666.078 516.385 666.465 516.694 666.776 517.072C667.091 517.45 667.337 517.928 667.512 518.504C667.692 519.08 667.782 519.742 667.782 520.49C667.782 521.242 667.692 521.906 667.512 522.482C667.337 523.058 667.091 523.536 666.776 523.914C666.465 524.292 666.078 524.603 665.614 524.846C665.151 525.085 664.651 525.256 664.115 525.359C663.579 525.458 662.98 525.508 662.318 525.508H659.576ZM660.988 524.319H662.271C662.555 524.319 662.812 524.31 663.041 524.292C663.275 524.274 663.521 524.245 663.777 524.204C664.038 524.159 664.27 524.094 664.473 524.008C664.676 523.923 664.878 523.817 665.081 523.691C665.283 523.56 665.457 523.398 665.601 523.205C665.749 523.007 665.88 522.781 665.993 522.529C666.11 522.277 666.197 521.98 666.256 521.638C666.315 521.291 666.344 520.908 666.344 520.49C666.344 520.017 666.303 519.591 666.222 519.213C666.141 518.83 666.033 518.508 665.898 518.247C665.767 517.982 665.599 517.752 665.392 517.558C665.184 517.365 664.971 517.212 664.75 517.099C664.529 516.987 664.273 516.897 663.98 516.829C663.692 516.761 663.417 516.719 663.156 516.701C662.895 516.678 662.6 516.667 662.271 516.667H660.988V524.319ZM668.91 521.8C668.91 520.638 669.244 519.706 669.91 519.004C670.576 518.297 671.432 517.943 672.476 517.943C673.224 517.943 673.87 518.137 674.415 518.524C674.96 518.911 675.358 519.425 675.61 520.064C675.817 520.586 675.921 521.156 675.921 521.773C675.921 521.917 675.916 522.061 675.907 522.205H670.275C670.275 522.926 670.486 523.502 670.909 523.934C671.337 524.366 671.864 524.583 672.49 524.583C673.039 524.583 673.469 524.479 673.78 524.272C674.095 524.06 674.338 523.754 674.509 523.353H675.813C675.628 524.038 675.252 524.598 674.685 525.035C674.118 525.472 673.395 525.69 672.517 525.69C671.936 525.69 671.414 525.591 670.95 525.393C670.491 525.195 670.113 524.92 669.815 524.569C669.523 524.218 669.298 523.808 669.14 523.34C668.987 522.867 668.91 522.354 668.91 521.8ZM670.288 521.125H674.577C674.563 520.553 674.37 520.06 673.996 519.645C673.622 519.227 673.116 519.017 672.476 519.017C671.833 519.017 671.312 519.204 670.916 519.578C670.525 519.947 670.315 520.463 670.288 521.125ZM676.326 518.065H677.724L679.744 523.765L681.763 518.065H683.06L680.257 525.508H679.136L676.326 518.065ZM683.485 521.8C683.485 520.638 683.819 519.706 684.485 519.004C685.151 518.297 686.007 517.943 687.051 517.943C687.799 517.943 688.445 518.137 688.99 518.524C689.535 518.911 689.933 519.425 690.185 520.064C690.392 520.586 690.496 521.156 690.496 521.773C690.496 521.917 690.491 522.061 690.482 522.205H684.85C684.85 522.926 685.061 523.502 685.484 523.934C685.912 524.366 686.439 524.583 687.065 524.583C687.614 524.583 688.044 524.479 688.355 524.272C688.67 524.06 688.913 523.754 689.084 523.353H690.388C690.203 524.038 689.827 524.598 689.26 525.035C688.693 525.472 687.97 525.69 687.092 525.69C686.511 525.69 685.989 525.591 685.525 525.393C685.066 525.195 684.688 524.92 684.39 524.569C684.098 524.218 683.873 523.808 683.715 523.34C683.562 522.867 683.485 522.354 683.485 521.8ZM684.863 521.125H689.152C689.138 520.553 688.945 520.06 688.571 519.645C688.197 519.227 687.691 519.017 687.051 519.017C686.408 519.017 685.887 519.204 685.491 519.578C685.1 519.947 684.89 520.463 684.863 521.125ZM691.962 525.508V515.478H693.225V525.508H691.962ZM695.035 523.549C694.836 523.04 694.737 522.462 694.737 521.813C694.737 521.165 694.836 520.586 695.035 520.078C695.233 519.569 695.498 519.164 695.832 518.862C696.169 518.56 696.543 518.333 696.953 518.18C697.367 518.022 697.804 517.943 698.263 517.943C698.722 517.943 699.157 518.022 699.566 518.18C699.981 518.333 700.354 518.56 700.688 518.862C701.025 519.164 701.293 519.569 701.491 520.078C701.689 520.586 701.789 521.165 701.789 521.813C701.789 522.462 701.689 523.04 701.491 523.549C701.293 524.058 701.025 524.465 700.688 524.772C700.354 525.073 699.981 525.303 699.566 525.461C699.157 525.614 698.722 525.69 698.263 525.69C697.804 525.69 697.367 525.614 696.953 525.461C696.543 525.303 696.169 525.073 695.832 524.772C695.498 524.465 695.233 524.058 695.035 523.549ZM696.075 521.813C696.075 522.291 696.131 522.712 696.244 523.076C696.361 523.441 696.52 523.732 696.723 523.948C696.93 524.159 697.162 524.319 697.419 524.427C697.675 524.531 697.957 524.583 698.263 524.583C698.898 524.583 699.42 524.348 699.83 523.88C700.244 523.412 700.451 522.723 700.451 521.813C700.451 521.336 700.393 520.917 700.276 520.557C700.163 520.192 700.003 519.904 699.796 519.693C699.593 519.477 699.364 519.317 699.107 519.213C698.851 519.105 698.569 519.051 698.263 519.051C697.615 519.051 697.088 519.274 696.683 519.72C696.277 520.161 696.075 520.859 696.075 521.813ZM703.295 527.926V518.065H704.558V519.24C705.062 518.376 705.872 517.943 706.989 517.943C707.894 517.943 708.644 518.292 709.238 518.99C709.832 519.684 710.13 520.625 710.13 521.813C710.13 522.417 710.049 522.966 709.886 523.461C709.724 523.952 709.502 524.36 709.218 524.684C708.934 525.004 708.601 525.251 708.218 525.427C707.84 525.602 707.43 525.69 706.989 525.69C705.872 525.69 705.062 525.256 704.558 524.387V527.926H703.295ZM704.679 520.557C704.562 520.922 704.504 521.341 704.504 521.813C704.504 522.286 704.562 522.707 704.679 523.076C704.801 523.441 704.963 523.734 705.165 523.954C705.373 524.171 705.602 524.335 705.854 524.447C706.111 524.556 706.383 524.61 706.672 524.61C707.342 524.61 707.858 524.366 708.218 523.88C708.578 523.389 708.759 522.7 708.759 521.813C708.759 520.926 708.578 520.24 708.218 519.753C707.858 519.263 707.342 519.017 706.672 519.017C706.383 519.017 706.111 519.074 705.854 519.186C705.602 519.294 705.373 519.459 705.165 519.679C704.963 519.895 704.801 520.188 704.679 520.557ZM711.602 525.508V518.065H712.865V519.186C713.365 518.358 714.112 517.943 715.107 517.943C716.179 517.943 716.893 518.38 717.248 519.254C717.816 518.38 718.651 517.943 719.754 517.943C720.582 517.943 721.19 518.198 721.578 518.707C721.965 519.211 722.158 519.911 722.158 520.807V525.508H720.902V521.179C720.902 520.926 720.891 520.704 720.868 520.51C720.846 520.316 720.801 520.125 720.733 519.936C720.666 519.742 720.576 519.582 720.463 519.456C720.351 519.33 720.195 519.229 719.997 519.152C719.804 519.076 719.574 519.038 719.308 519.038C718.754 519.038 718.315 519.247 717.991 519.666C717.672 520.084 717.512 520.685 717.512 521.469V525.508H716.255V521.179C716.255 520.926 716.244 520.704 716.222 520.51C716.199 520.316 716.154 520.125 716.087 519.936C716.019 519.742 715.929 519.582 715.816 519.456C715.704 519.33 715.549 519.229 715.35 519.152C715.157 519.076 714.927 519.038 714.662 519.038C714.108 519.038 713.669 519.247 713.344 519.666C713.025 520.084 712.865 520.685 712.865 521.469V525.508H711.602ZM723.536 521.8C723.536 520.638 723.869 519.706 724.536 519.004C725.202 518.297 726.058 517.943 727.102 517.943C727.85 517.943 728.496 518.137 729.041 518.524C729.585 518.911 729.984 519.425 730.236 520.064C730.443 520.586 730.547 521.156 730.547 521.773C730.547 521.917 730.542 522.061 730.533 522.205H724.9C724.9 522.926 725.112 523.502 725.535 523.934C725.963 524.366 726.49 524.583 727.116 524.583C727.665 524.583 728.095 524.479 728.406 524.272C728.721 524.06 728.964 523.754 729.135 523.353H730.439C730.254 524.038 729.878 524.598 729.311 525.035C728.743 525.472 728.021 525.69 727.143 525.69C726.562 525.69 726.04 525.591 725.576 525.393C725.117 525.195 724.738 524.92 724.441 524.569C724.149 524.218 723.923 523.808 723.766 523.34C723.613 522.867 723.536 522.354 723.536 521.8ZM724.914 521.125H729.203C729.189 520.553 728.996 520.06 728.622 519.645C728.248 519.227 727.742 519.017 727.102 519.017C726.458 519.017 725.938 519.204 725.542 519.578C725.15 519.947 724.941 520.463 724.914 521.125ZM732.012 525.508V518.065H733.275V519.186C733.775 518.358 734.577 517.943 735.68 517.943C737.314 517.943 738.131 518.898 738.131 520.807V525.508H736.868V521.179C736.868 520.922 736.857 520.699 736.835 520.51C736.817 520.321 736.774 520.129 736.706 519.936C736.643 519.738 736.553 519.578 736.436 519.456C736.319 519.335 736.159 519.236 735.957 519.159C735.759 519.078 735.52 519.038 735.241 519.038C734.624 519.038 734.142 519.247 733.795 519.666C733.449 520.08 733.275 520.681 733.275 521.469V525.508H732.012ZM739.199 519.078V518.065H740.374V516.201H741.63V518.065H743.042V519.078H741.63V523.488C741.63 523.894 741.673 524.157 741.758 524.279C741.844 524.396 742.06 524.454 742.407 524.454H743.042V525.508H742.13C741.756 525.508 741.461 525.485 741.245 525.44C741.033 525.391 740.858 525.296 740.718 525.157C740.583 525.013 740.491 524.826 740.441 524.596C740.396 524.362 740.374 524.044 740.374 523.644V519.078H739.199ZM744.413 525.508V523.914H746.007V525.508H744.413ZM747.803 525.508V523.914H749.397V525.508H747.803ZM751.194 525.508V523.914H752.788V525.508H751.194Z" fill="#454545"/>
<line x1="897.821" y1="542.195" x2="555" y2="542.195" stroke="#F3F3F3"/>
<path d="M559 579.744C554.644 579.744 551.1 576.2 551.1 571.844C551.1 567.487 554.644 563.943 559 563.943C563.357 563.943 566.901 567.487 566.901 571.844C566.901 576.2 563.357 579.744 559 579.744ZM559 565.072C555.264 565.072 552.228 568.108 552.228 571.844C552.228 575.579 555.264 578.615 559 578.615C562.736 578.615 565.772 575.579 565.772 571.844C565.772 568.108 562.736 565.072 559 565.072Z" fill="#D8D8D8"/>
<path d="M559 575.794C558.684 575.794 558.436 575.545 558.436 575.229V568.458C558.436 568.142 558.684 567.893 559 567.893C559.316 567.893 559.564 568.142 559.564 568.458V575.229C559.564 575.545 559.316 575.794 559 575.794Z" fill="#D8D8D8"/>
<path d="M562.386 572.408H555.614C555.298 572.408 555.05 572.16 555.05 571.844C555.05 571.528 555.298 571.279 555.614 571.279H562.386C562.702 571.279 562.95 571.528 562.95 571.844C562.95 572.16 562.702 572.408 562.386 572.408Z" fill="#D8D8D8"/>
<path d="M900.225 567.278C900.55 566.379 899.679 565.508 898.78 565.834L887.791 569.808C886.889 570.135 886.78 571.366 887.609 571.846L891.117 573.877L894.25 570.745C894.392 570.608 894.582 570.532 894.779 570.534C894.976 570.535 895.165 570.614 895.304 570.754C895.444 570.893 895.523 571.082 895.525 571.279C895.526 571.477 895.451 571.667 895.314 571.809L892.181 574.941L894.213 578.449C894.693 579.279 895.924 579.169 896.25 578.268L900.225 567.278Z" fill="#BABABA"/>
<rect x="545" y="141" width="353" height="355" fill="#F7F7F7"/>
<rect opacity="0.5" x="545.25" y="141.25" width="352.5" height="41.5" fill="#D4DFFE" stroke="white" stroke-width="0.5"/>
<rect x="555" y="154" width="105" height="15" rx="2" fill="white"/>
<rect x="832" y="154" width="53" height="15" rx="2" fill="white"/>
<rect x="652" y="233" width="161" height="215" rx="2" fill="#F2F2F2"/>
<rect x="662" y="244" width="141" height="8" rx="1" fill="#D8D8D8"/>
<rect x="662" y="260" width="141" height="8" rx="1" fill="#D8D8D8"/>
<rect x="662" y="276" width="141" height="8" rx="1" fill="#D8D8D8"/>
<rect x="662" y="292" width="141" height="8" rx="1" fill="#D8D8D8"/>
<rect x="662" y="308" width="141" height="8" rx="1" fill="#D8D8D8"/>
<rect x="662" y="324" width="141" height="8" rx="1" fill="#D8D8D8"/>
<rect x="662" y="340" width="141" height="8" rx="1" fill="#D8D8D8"/>
<rect x="662" y="356" width="141" height="8" rx="1" fill="#D8D8D8"/>
<rect x="662" y="372" width="141" height="8" rx="1" fill="#D8D8D8"/>
<rect x="662" y="388" width="79" height="8" rx="1" fill="#D8D8D8"/>
<rect x="662" y="404" width="79" height="8" rx="1" fill="#D8D8D8"/>
<rect x="662" y="429" width="34" height="8" rx="1" fill="#D8D8D8"/>
<path d="M819.031 444.969C822.328 430.593 813.346 416.266 798.969 412.969C784.592 409.673 770.266 418.655 766.969 433.031C763.672 447.408 772.654 461.735 787.031 465.031C801.408 468.328 815.734 459.346 819.031 444.969Z" fill="#ADC0FA"/>
<g clip-path="url(#clip2_1914_14233)">
<path d="M805.784 450.211L801.055 441.466C801.538 440.371 801.808 439.161 801.808 437.888C801.808 432.982 797.83 429.004 792.924 429.004C788.016 429.004 784.039 432.982 784.039 437.888C784.039 439.192 784.322 440.429 784.826 441.544L780.076 450.207C779.923 450.486 779.949 450.829 780.14 451.083C780.332 451.337 780.656 451.456 780.966 451.383L785.022 450.453L786.41 454.319C786.518 454.62 786.793 454.828 787.111 454.852C787.131 454.853 787.151 454.854 787.171 454.854C787.317 454.854 787.46 454.815 787.585 454.74C787.711 454.664 787.813 454.557 787.882 454.428L792.016 446.727C792.318 446.757 792.62 446.772 792.923 446.772C793.204 446.772 793.481 446.758 793.755 446.732L797.979 454.434C798.053 454.571 798.166 454.683 798.303 454.757C798.44 454.831 798.595 454.864 798.75 454.851C799.067 454.826 799.341 454.618 799.448 454.319L800.836 450.452L804.892 451.383C805.204 451.458 805.524 451.337 805.716 451.085C805.909 450.832 805.935 450.491 805.784 450.211H805.784ZM787.318 452.064L786.301 449.232C786.162 448.847 785.759 448.623 785.36 448.718L782.36 449.406L785.779 443.169C786.905 444.69 788.505 445.838 790.361 446.396L787.318 452.064ZM785.662 437.888C785.662 433.885 788.92 430.627 792.924 430.627C796.928 430.627 800.185 433.885 800.185 437.888C800.185 441.892 796.928 445.15 792.924 445.15C788.92 445.15 785.662 441.892 785.662 437.888ZM800.499 448.718C800.098 448.623 799.696 448.847 799.557 449.232L798.534 452.085L795.424 446.414C797.329 445.856 798.968 444.678 800.108 443.113L803.513 449.409L800.499 448.718Z" fill="white"/>
</g>
</g>
<defs>
<filter id="filter0_f_1914_14233" x="-636.6" y="-399.6" width="2616.2" height="1332.2" filterUnits="userSpaceOnUse" color-interpolation-filters="sRGB">
<feFlood flood-opacity="0" result="BackgroundImageFix"/>
<feBlend mode="normal" in="SourceGraphic" in2="BackgroundImageFix" result="shape"/>
<feGaussianBlur stdDeviation="249.3" result="effect1_foregroundBlur_1914_14233"/>
</filter>
<clipPath id="bgblur_1_1914_14233_clip_path" transform="translate(-528.182 -111.182)"><rect x="537" y="120" width="378" height="475"/>
</clipPath><linearGradient id="paint0_linear_1914_14233" x1="656.455" y1="328.295" x2="1060.65" y2="438.512" gradientUnits="userSpaceOnUse">
<stop stop-color="white"/>
<stop offset="1" stop-color="white" stop-opacity="0"/>
</linearGradient>
<clipPath id="clip0_1914_14233">
<rect width="1452" height="709" fill="white"/>
</clipPath>
<clipPath id="clip2_1914_14233">
<rect width="25.8586" height="25.8586" fill="white" transform="translate(780 429)"/>
</clipPath>
</defs>
</svg>
